<svg xmlns="http://www.w3.org/2000/svg" viewBox="428 163 728 517" width="728" height="517" role="img" aria-labelledby="npIsologoTitle">
  <title id="npIsologoTitle">NomaPay — isologo monocromo blanco</title>
  <g transform="translate(0,675) scale(0.1,-0.1)">
    <path fill="#FFFFFF" d="M5485 4814 c-241 -35 -367 -87 -540 -224 -150 -120 -275 -317 -333 -525 l-27 -100 0 -1665 0 -1665 31 -65 c39 -82 83 -130 157 -174 192 -113 437 -34 536 174 l26 55 5 1595 5 1595 26 45 c34 57 53 74 114 101 37 17 60 20 101 16 101 -10 127 -34 276 -257 107 -159 406 -600 772 -1140 114 -168 282 -415 372 -550 91 -135 237 -351 325 -480 87 -129 275 -408 417 -619 141 -212 283 -413 314 -447 69 -73 190 -155 273 -184 77 -27 194 -50 253 -50 232 2 460 137 556 329 71 140 76 179 76 576 0 422 -11 390 132 380 101 -8 342 8 468 30 174 31 340 90 545 197 28 14 103 64 168 110 631 451 883 1208 630 1893 -83 223 -249 459 -427 604 -289 236 -615 351 -995 351 -385 0 -744 -117 -1116 -362 -401 -264 -729 -648 -960 -1123 -66 -135 -140 -312 -170 -402 -9 -29 -20 -53 -24 -53 -4 0 -76 102 -160 228 -84 125 -209 310 -278 412 -714 1056 -712 1053 -810 1137 -135 116 -270 189 -423 227 -101 26 -249 40 -315 30z m4488 -818 c48 -14 116 -40 150 -57 314 -158 506 -496 466 -823 -31 -252 -134 -463 -314 -641 -155 -153 -338 -254 -550 -303 -89 -20 -138 -25 -255 -26 -80 -1 -166 3 -192 7 -45 8 -48 10 -48 38 0 37 34 173 59 237 36 90 136 242 160 242 4 0 22 -33 40 -72 51 -110 56 -119 84 -136 24 -15 29 -15 61 0 35 17 69 76 146 258 16 36 51 117 80 180 29 63 65 144 80 180 15 36 51 117 79 180 28 63 51 129 51 147 0 42 -40 83 -82 83 -27 0 -120 -36 -308 -120 -172 -77 -324 -142 -359 -155 -116 -44 -269 -118 -288 -140 -13 -14 -23 -37 -23 -50 0 -45 28 -61 233 -132 26 -9 47 -20 47 -23 0 -4 -28 -14 -62 -24 -221 -60 -429 -237 -521 -443 -80 -176 -80 -174 -87 -698 -4 -270 -11 -483 -16 -500 -21 -61 -41 -42 -184 171 -441 656 -495 739 -491 759 6 37 100 330 140 435 99 264 274 581 428 775 110 139 316 332 456 427 154 105 425 215 597 243 131 22 314 14 423 -19z m59 -543 c28 -25 22 -72 -23 -168 -22 -48 -60 -133 -84 -189 -163 -377 -265 -592 -289 -611 -44 -32 -70 -9 -123 110 -24 55 -50 114 -58 130 -7 17 -23 53 -34 80 l-22 51 -147 54 c-208 76 -212 77 -219 96 -3 9 -2 28 3 42 8 23 66 51 464 223 250 108 468 198 484 198 16 1 38 -6 48 -16z"></path>
    <path fill="#FFFFFF" d="M9500 3271 c-398 -172 -456 -200 -464 -223 -5 -14 -6 -33 -3 -42 7 -19 11 -20 219 -96 l147 -54 22 -51 c11 -27 27 -63 34 -80 8 -16 34 -75 58 -130 53 -119 79 -142 123 -110 24 19 126 234 289 611 24 56 62 141 84 189 23 48 41 102 41 120 0 39 -27 65 -66 64 -16 0 -234 -90 -484 -198z"></path>
  </g>
</svg>